<svg xmlns="http://www.w3.org/2000/svg" width="560" height="236" viewBox="0 0 560 236" role="img" aria-labelledby="t">
<title id="t">GitHub activity and publication count</title>
<defs><linearGradient id="bg" x1="0" y1="0" x2="1" y2="1"><stop offset="0" stop-color="#0a1020"/><stop offset="1" stop-color="#0d3446"/></linearGradient><linearGradient id="ac" x1="0" y1="0" x2="1" y2="0"><stop offset="0" stop-color="#22d3ee"/><stop offset="1" stop-color="#34d399"/></linearGradient></defs>
<rect width="560" height="236" rx="14" fill="url(#bg)"/>
<text x="28" y="40" font-family="Segoe UI, Helvetica, Arial, sans-serif" font-size="18" font-weight="700" fill="#ffffff">GitHub activity</text>
<rect x="28" y="50" width="40" height="3" rx="1.5" fill="url(#ac)"/>
<g transform="translate(28,71)"><path d="M8 1.5l1.9 4 4.4.5-3.3 3 .9 4.4L8 11.2 4.1 13.4 5 9l-3.3-3 4.4-.5z" fill="none" stroke="#22d3ee" stroke-width="1.4" stroke-linejoin="round"/></g>
<text x="54" y="84" font-family="Segoe UI, Helvetica, Arial, sans-serif" font-size="14" fill="#cbd5e1">Stars earned</text>
<text x="290" y="84" text-anchor="end" font-family="Segoe UI, Helvetica, Arial, sans-serif" font-size="15" font-weight="700" fill="#ffffff">6</text>
<g transform="translate(28,101)"><circle cx="8" cy="8" r="2.6" fill="none" stroke="#22d3ee" stroke-width="1.4"/><path d="M1 8h4.4M10.6 8H15" stroke="#22d3ee" stroke-width="1.4"/></g>
<text x="54" y="114" font-family="Segoe UI, Helvetica, Arial, sans-serif" font-size="14" fill="#cbd5e1">Commits (last year)</text>
<text x="290" y="114" text-anchor="end" font-family="Segoe UI, Helvetica, Arial, sans-serif" font-size="15" font-weight="700" fill="#ffffff">543</text>
<g transform="translate(28,131)"><circle cx="4" cy="3.5" r="1.7" fill="none" stroke="#22d3ee" stroke-width="1.4"/><circle cx="4" cy="12.5" r="1.7" fill="none" stroke="#22d3ee" stroke-width="1.4"/><circle cx="12" cy="12.5" r="1.7" fill="none" stroke="#22d3ee" stroke-width="1.4"/><path d="M4 5.2v5.6M12 10.8V6.5C12 5 11 4.5 9.5 4.5H8" fill="none" stroke="#22d3ee" stroke-width="1.4"/></g>
<text x="54" y="144" font-family="Segoe UI, Helvetica, Arial, sans-serif" font-size="14" fill="#cbd5e1">Pull requests</text>
<text x="290" y="144" text-anchor="end" font-family="Segoe UI, Helvetica, Arial, sans-serif" font-size="15" font-weight="700" fill="#ffffff">11</text>
<g transform="translate(28,161)"><circle cx="8" cy="8" r="6" fill="none" stroke="#22d3ee" stroke-width="1.4"/><circle cx="8" cy="8" r="1.4" fill="#22d3ee"/></g>
<text x="54" y="174" font-family="Segoe UI, Helvetica, Arial, sans-serif" font-size="14" fill="#cbd5e1">Issues</text>
<text x="290" y="174" text-anchor="end" font-family="Segoe UI, Helvetica, Arial, sans-serif" font-size="15" font-weight="700" fill="#ffffff">8</text>
<g transform="translate(28,191)"><rect x="2.5" y="1.8" width="11" height="12.4" rx="1.6" fill="none" stroke="#22d3ee" stroke-width="1.4"/><path d="M5.5 5h5M5.5 8h5" stroke="#22d3ee" stroke-width="1.4"/></g>
<text x="54" y="204" font-family="Segoe UI, Helvetica, Arial, sans-serif" font-size="14" fill="#cbd5e1">Repositories contributed to</text>
<text x="290" y="204" text-anchor="end" font-family="Segoe UI, Helvetica, Arial, sans-serif" font-size="15" font-weight="700" fill="#ffffff">8</text>
<rect x="326" y="28" width="206" height="170" rx="12" fill="#ffffff" fill-opacity="0.05" stroke="#22d3ee" stroke-opacity="0.35"/>
<text x="429" y="118" text-anchor="middle" font-family="Segoe UI, Helvetica, Arial, sans-serif" font-size="15" fill="#e2e8f0">ECE faculty</text>
<text x="532" y="222" text-anchor="end" font-family="Consolas, Menlo, monospace" font-size="10" fill="#64748b">updated Oct 2026</text>
</svg>